<svg xmlns="http://www.w3.org/2000/svg" xmlns:xlink="http://www.w3.org/1999/xlink" viewBox="0,0,256,256" width="100px" height="100px"><g fill="#ffffff" fill-rule="nonzero" stroke="none" stroke-width="1" stroke-linecap="butt" stroke-linejoin="miter" stroke-miterlimit="10" stroke-dasharray="" stroke-dashoffset="0" font-family="none" font-weight="none" font-size="none" text-anchor="none" style="mix-blend-mode: normal"><g transform="scale(2.56,2.56)"><path d="M50.49805,12.3457c-14.209,0 -25.76953,11.56053 -25.76953,25.76953c0,9.469 5.12487,18.06461 13.42188,22.59961l-0.45703,3.73047c-0.005,0.04 -0.00781,0.08009 -0.00781,0.12109c0,2.49935 1.36374,4.75285 3.48633,5.95703c-0.87119,0.73395 -1.43945,1.83806 -1.43945,3.08984c0,1.55242 0.86531,2.88611 2.11523,3.54883c-0.39048,0.5698 -0.61914,1.25656 -0.61914,1.99805v0.90625c0,1.88656 1.48368,3.41988 3.34375,3.52734c0.4333,2.30615 3.15399,4.03125 6.55664,4.03125c2.08427,0 6.26309,-1.00114 6.70117,-4.02734c1.88662,-0.07988 3.39844,-1.62618 3.39844,-3.53125v-0.90625c0,-1.956 -1.59087,-3.54687 -3.54687,-3.54687h-12.90625c-0.00668,0 -0.01286,0.00192 -0.01953,0.00195h-1.16406c-1.025,0 -1.85937,-0.897 -1.85937,-2c0,-1.103 0.83438,-2 1.85938,-2h14.32617c1.025,0 1.85938,0.897 1.85938,2c0,0.571 -0.0012,0.56981 -0.4082,1.13281c-0.324,0.447 -0.22239,1.07248 0.22461,1.39648c0.447,0.323 1.07053,0.22434 1.39453,-0.22266c0.699,-0.965 0.78906,-1.15759 0.78906,-2.30859c0,-2.206 -1.73038,-4 -3.85937,-4h-14.32617c-0.02276,0 -0.04374,0.0074 -0.06641,0.00781c-0.11711,-0.20127 -0.29393,-0.36829 -0.53125,-0.44922c-1.961,-0.667 -3.28459,-2.48987 -3.30859,-4.54687l0.5332,-4.35156c0.052,-0.416 -0.16216,-0.82072 -0.53516,-1.01172c-7.99,-4.094 -12.95508,-12.19748 -12.95508,-21.14648c0,-13.106 10.66353,-23.76953 23.76953,-23.76953c13.337,0 24.18945,10.68255 24.18945,23.81055c0,8.658 -5.251,16.94342 -13.375,21.10742c-0.373,0.191 -0.58716,0.59472 -0.53516,1.01172l0.5332,4.35156c-0.016,1.283 -0.52913,2.48649 -1.45312,3.39648c-0.394,0.388 -0.39777,1.02201 -0.00977,1.41602c0.388,0.393 1.02006,0.39777 1.41406,0.00977c1.321,-1.303 2.04883,-3.03586 2.04883,-4.88086c0,-0.04 -0.00281,-0.08205 -0.00781,-0.12305l-0.45703,-3.73047c8.432,-4.601 13.8418,-13.38059 13.8418,-22.55859c0,-14.232 -11.74945,-25.81055 -26.18945,-25.81055zM51.72852,19.36328c-0.276,0 -0.5,0.224 -0.5,0.5c0,0.276 0.224,0.5 0.5,0.5c0.986,0 1.97736,0.08219 2.94336,0.24219c5.596,0.928 10.4673,4.51656 13.0293,9.60156c0.088,0.174 0.26426,0.27539 0.44727,0.27539c0.076,0 0.15361,-0.01769 0.22461,-0.05469c0.247,-0.124 0.34666,-0.42292 0.22266,-0.66992c-2.705,-5.369 -7.84977,-9.15967 -13.75977,-10.13867c-1.02,-0.169 -2.06642,-0.25586 -3.10742,-0.25586zM69.45117,32.66016c-0.06437,-0.0077 -0.13127,-0.00388 -0.19727,0.01563c-0.266,0.077 -0.41975,0.35314 -0.34375,0.61914c0.459,1.599 0.69336,3.26136 0.69336,4.94336c0,0.276 0.224,0.5 0.5,0.5c0.277,0 0.5,-0.222 0.5,-0.5c0,-1.775 -0.24742,-3.5327 -0.73242,-5.2207c-0.057,-0.19875 -0.2268,-0.33431 -0.41992,-0.35742zM56.46289,43.16016c-0.2895,-0.01625 -0.59816,0.04278 -0.91016,0.17578c-0.838,0.358 -1.51739,1.17528 -1.65039,1.98828c-0.227,1.391 0.23033,2.88367 1.23633,4.13867c-0.709,0.561 -1.5485,0.89961 -2.4375,0.97461c-0.994,0.087 -2.11,-0.32984 -3,-1.08984c0.685,-1.084 1.09484,-2.24126 1.33984,-3.19727c0.271,-1.059 0.14033,-1.83936 -0.38867,-2.31836c-0.404,-0.368 -0.96717,-0.48141 -1.57617,-0.31641c-0.812,0.216 -1.54425,0.87933 -1.78125,1.61133c-0.431,1.332 -0.08664,2.84072 0.94336,4.13672c0.053,0.066 0.10611,0.13231 0.16211,0.19531c-0.375,0.477 -0.82066,0.91711 -1.34766,1.28711c-0.25,0.176 -0.51416,0.32813 -0.78516,0.45313c-0.53,-1.309 -1.16987,-2.55862 -1.92187,-3.76562c-0.733,-1.177 -1.74522,-1.787 -2.69922,-1.625c-0.41,0.068 -0.80669,0.27805 -1.17969,0.62305c-0.727,0.673 -1.0833,1.50425 -1.0293,2.40625c0.065,1.084 0.72836,2.15631 1.81836,2.94531c1.225,0.886 2.86578,1.11436 4.42578,0.69336c1.463,4.091 1.88333,8.81875 1.36133,14.71875c-0.025,0.275 0.17813,0.51702 0.45313,0.54102c0.015,0.002 0.03088,0.00195 0.04688,0.00195c0.256,0 0.472,-0.19603 0.5,-0.45703c0.536,-6.054 0.09894,-10.91753 -1.41406,-15.14453c0.346,-0.157 0.68295,-0.34727 1.00195,-0.57227c0.582,-0.408 1.07323,-0.8893 1.49023,-1.4043c1.08,0.894 2.43097,1.37548 3.66797,1.27148c1.113,-0.093 2.1592,-0.52338 3.0332,-1.23437c0.01,0.01 0.02025,0.0193 0.03125,0.0293c0.482,0.446 1.01041,0.8137 1.56641,1.0957c-0.09396,0.16793 -0.172,0.32439 -0.26172,0.49023c-0.18609,-0.04847 -0.3859,0.00518 -0.49414,0.23633c-0.50399,1.07715 -0.89555,2.16429 -1.21875,3.25977c-0.04972,0.114 -0.17596,0.38603 -0.20117,0.44531c-0.04591,0.1084 -0.04261,0.22117 -0.01367,0.32617c-0.91667,3.52488 -1.05266,7.14913 -0.98047,10.9082c0.012,0.643 1.012,0.645 1,0c-0.07327,-3.85878 0.05366,-7.61271 1.09766,-11.24023c0.53934,-1.23276 1.23424,-2.6666 2.01172,-4.04102c0.964,0.307 1.97006,0.35905 2.91406,0.12305c0.302,-0.142 2.96425,-1.43653 3.28125,-3.26953c0.087,-0.507 0.02447,-1.27645 -0.76953,-2.06445c-0.453,-0.451 -1.00842,-0.62677 -1.60742,-0.50977c-1.414,0.278 -2.97476,2.3177 -4.25977,4.4707c-0.484,-0.243 -0.95095,-0.56208 -1.37695,-0.95508c0.04,-0.045 0.07919,-0.09267 0.11719,-0.13867c1.002,-1.211 1.48613,-2.77011 1.32813,-4.28711c-0.058,-0.552 -0.12866,-1.23753 -0.72266,-1.64453c-0.24,-0.164 -0.51128,-0.25523 -0.80078,-0.27148zM56.36328,44.1582c0.114,0 0.22908,0.02666 0.33008,0.09766c0.198,0.136 0.24492,0.45269 0.29492,0.92969c0.13,1.245 -0.27152,2.53502 -1.10352,3.54102c-0.009,0.011 -0.01834,0.02416 -0.02734,0.03516c-0.789,-1.018 -1.1467,-2.19239 -0.9707,-3.27539c0.078,-0.47 0.54064,-1.01047 1.05664,-1.23047c0.12,-0.052 0.26992,-0.09766 0.41992,-0.09766zM49.60352,44.44336c0.132,0 0.268,0.03191 0.375,0.12891c0.29,0.264 0.2098,0.86908 0.0918,1.33008c-0.207,0.809 -0.54298,1.77927 -1.08398,2.69727c-0.792,-1.019 -1.06319,-2.17006 -0.74219,-3.16406c0.132,-0.407 0.60889,-0.82612 1.08789,-0.95312c0.081,-0.022 0.17549,-0.03906 0.27148,-0.03906zM41.95313,46.7832c0.593,0 1.17702,0.59269 1.54102,1.17969c0.712,1.143 1.31822,2.32541 1.82422,3.56641c-1.241,0.303 -2.54051,0.12531 -3.47852,-0.55469c-0.845,-0.612 -1.3573,-1.41131 -1.4043,-2.19531c-0.036,-0.601 0.20294,-1.14428 0.71094,-1.61328c0.227,-0.211 0.45006,-0.33509 0.66406,-0.37109c0.048,-0.008 0.09558,-0.01172 0.14258,-0.01172zM62.5625,46.95313c0.18567,0.00802 0.35063,0.08966 0.51563,0.25391c0.397,0.394 0.55728,0.78159 0.48828,1.18359c-0.193,1.122 -2.02995,2.20995 -2.62695,2.50195c-0.653,0.159 -1.36236,0.13155 -2.06836,-0.06445c1.216,-2.012 2.51705,-3.66737 3.49805,-3.85937c0.06675,-0.0135 0.13147,-0.0183 0.19336,-0.01562zM44.77539,77.61328h12.45313h0.45313c0.853,0 1.54688,0.69388 1.54688,1.54688v0.90625c0,0.853 -0.69387,1.54688 -1.54687,1.54688h-12.90625c-0.853,0 -1.54687,-0.69388 -1.54687,-1.54687v-0.90625c0,-0.853 0.69387,-1.54687 1.54688,-1.54687zM46.67383,83.61328h9.08594c-0.60907,1.51351 -3.68868,2.01172 -4.63086,2.01172c-2.10939,0 -3.92747,-0.87141 -4.45508,-2.01172z"></path></g></g></svg>